<?xml version="1.0" encoding="utf-8"?>
<!-- Generator: Adobe Illustrator 23.0.4, SVG Export Plug-In . SVG Version: 6.00 Build 0)  -->
<svg version="1.1" id="Layer_1" xmlns="http://www.w3.org/2000/svg" xmlns:xlink="http://www.w3.org/1999/xlink" x="0px" y="0px"
	 viewBox="0 0 400 200" style="enable-background:new 0 0 400 200;" xml:space="preserve">
<style type="text/css">
	.st0{enable-background:new    ;}
</style>
<g class="st0">
	<path d="M34.2,132.35c-9.45,0-15.84-7.21-15.84-17.27c0-9.85,6.5-17.27,15.84-17.27c3.86,0,6.91,0.61,9.75,2.23
		c1.12,0.61,0.2,2.23-0.91,1.62c-2.13-1.12-4.57-2.03-8.43-2.03c-8.63,0-14.12,6.6-14.12,15.44c0,9.04,5.38,15.44,14.02,15.44
		c3.76,0,6.09-0.81,8.53-2.03c1.02-0.51,1.93,0.91,1.02,1.52C42.12,131.24,38.47,132.35,34.2,132.35z"/>
	<path d="M76.05,115.29c0,7.92,4.77,15.03,14.42,15.03c5.48,0,9.24-1.83,11.98-3.76c1.32-0.91,2.13,0.91,1.22,1.62
		c-2.64,1.93-5.99,4.16-13.2,4.16c-10.66,0-16.66-7.62-16.66-17.16s6.2-17.37,15.34-17.37c9.75,0,15.13,7.92,15.13,16.25
		c0,0.91-0.41,1.22-1.32,1.22H76.05z M102.25,113.26c-0.81-7.52-5.38-13.41-13.1-13.41c-7.82,0-12.19,5.89-13,13.41H102.25z"/>
	<path d="M131.09,99.35c-0.1-0.2-0.1-0.2-0.1-0.41c0-0.61,0.51-1.02,1.02-1.02c0.61,0,0.81,0.3,1.02,0.81l13,30.27l12.9-30.27
		c0.2-0.41,0.41-0.81,1.02-0.81c0.51,0,1.02,0.41,1.02,1.02c0,0.2,0,0.2-0.1,0.41l-13.91,32.09c-0.2,0.51-0.51,0.91-1.02,0.91
		c-0.41,0-0.71-0.41-0.91-0.91L131.09,99.35z"/>
	<path d="M192.13,92.74c-0.91,0-1.62-0.71-1.62-1.62c0-1.02,0.71-1.73,1.62-1.73c1.02,0,1.73,0.71,1.73,1.73
		C193.86,92.03,193.15,92.74,192.13,92.74z M191.12,98.94c0-0.71,0.3-1.12,1.02-1.12s1.02,0.41,1.02,1.12v24.48
		c0,3.76,0.2,7.01,3.86,7.01c0.61,0,1.02,0.3,1.02,1.02c0,0.61-0.41,0.91-1.02,0.91c-5.69,0-5.89-4.77-5.89-9.04V98.94z"/>
	<path d="M241.89,132.35c-9.45,0-15.84-7.21-15.84-17.27c0-9.85,6.5-17.27,15.84-17.27c3.86,0,6.91,0.61,9.75,2.23
		c1.12,0.61,0.2,2.23-0.91,1.62c-2.13-1.12-4.57-2.03-8.43-2.03c-8.63,0-14.12,6.6-14.12,15.44c0,9.04,5.38,15.44,14.02,15.44
		c3.76,0,6.09-0.81,8.53-2.03c1.02-0.51,1.93,0.91,1.02,1.52C249.82,131.24,246.16,132.35,241.89,132.35z"/>
	<path d="M307.3,113.16c0-9.65-3.25-13.3-9.95-13.3c-6.09,0-10.56,3.96-10.56,13.3v18.18c0,0.61-0.41,1.02-1.02,1.02
		s-1.02-0.41-1.02-1.02V58.21c0-0.61,0.51-1.02,1.02-1.02c0.61,0,1.02,0.41,1.02,1.02v46.92c1.02-3.66,4.98-7.31,10.56-7.31
		c9.65,0,11.98,6.7,11.98,15.34v18.18c0,0.61-0.41,1.02-1.02,1.02s-1.02-0.41-1.02-1.02V113.16z"/>
	<path d="M343.86,115.29c0,7.92,4.77,15.03,14.42,15.03c5.48,0,9.24-1.83,11.98-3.76c1.32-0.91,2.13,0.91,1.22,1.62
		c-2.64,1.93-5.99,4.16-13.2,4.16c-10.66,0-16.66-7.62-16.66-17.16s6.2-17.37,15.34-17.37c9.75,0,15.13,7.92,15.13,16.25
		c0,0.91-0.41,1.22-1.32,1.22H343.86z M370.06,113.26c-0.81-7.52-5.38-13.41-13.1-13.41c-7.82,0-12.19,5.89-13,13.41H370.06z"/>
</g>
</svg>
