<svg id="Layer_1" data-name="Layer 1" xmlns="http://www.w3.org/2000/svg" viewBox="0 0 353.73 75.17">
  <defs>
    <style>
      .cls-1 {
        isolation: isolate;
      }
    </style>
  </defs>
  <title>ceviche_logoE</title>
  <g class="cls-1">
    <path d="M34.2,132.35c-9.45,0-15.84-7.21-15.84-17.27,0-9.85,6.5-17.27,15.84-17.27A18.76,18.76,0,0,1,44,100a.93.93,0,1,1-.91,1.62,16.81,16.81,0,0,0-8.43-2c-8.63,0-14.12,6.6-14.12,15.44,0,9,5.38,15.44,14,15.44a17.33,17.33,0,0,0,8.53-2c1-.51,1.93.91,1,1.52A19.53,19.53,0,0,1,34.2,132.35Z" transform="translate(-18.36 -57.19)"/>
    <path d="M76.05,115.29c0,7.92,4.77,15,14.42,15a20,20,0,0,0,12-3.76c1.32-.91,2.13.91,1.22,1.62-2.64,1.93-6,4.16-13.2,4.16-10.66,0-16.66-7.62-16.66-17.16S80,97.81,89.15,97.81c9.75,0,15.13,7.92,15.13,16.25,0,.91-.41,1.22-1.32,1.22H76.05Zm26.2-2c-.81-7.52-5.38-13.41-13.1-13.41s-12.19,5.89-13,13.41Z" transform="translate(-18.36 -57.19)"/>
    <path d="M131.09,99.35a.61.61,0,0,1-.1-.41,1,1,0,0,1,1-1c.61,0,.81.3,1,.81L146,129l12.9-30.27c.2-.41.41-.81,1-.81a1,1,0,0,1,1,1,.64.64,0,0,1-.1.41L147,131.44c-.2.51-.51.91-1,.91s-.71-.41-.91-.91Z" transform="translate(-18.36 -57.19)"/>
    <path d="M192.13,92.74a1.6,1.6,0,0,1-1.62-1.62,1.63,1.63,0,0,1,1.62-1.73,1.65,1.65,0,0,1,1.73,1.73A1.63,1.63,0,0,1,192.13,92.74Zm-1,6.2c0-.71.3-1.12,1-1.12s1,.41,1,1.12v24.48c0,3.76.2,7,3.86,7a.91.91,0,0,1,1,1c0,.61-.41.91-1,.91-5.69,0-5.89-4.77-5.89-9V98.94Z" transform="translate(-18.36 -57.19)"/>
    <path d="M241.89,132.35c-9.45,0-15.84-7.21-15.84-17.27,0-9.85,6.5-17.27,15.84-17.27a18.76,18.76,0,0,1,9.75,2.23.93.93,0,1,1-.91,1.62,16.81,16.81,0,0,0-8.43-2c-8.63,0-14.12,6.6-14.12,15.44,0,9,5.38,15.44,14,15.44a17.33,17.33,0,0,0,8.53-2c1-.51,1.93.91,1,1.52A19.5,19.5,0,0,1,241.89,132.35Z" transform="translate(-18.36 -57.19)"/>
    <path d="M307.3,113.16c0-9.65-3.25-13.3-9.95-13.3-6.09,0-10.56,4-10.56,13.3v18.18a1,1,0,0,1-2,0V58.21a1,1,0,0,1,1-1,1,1,0,0,1,1,1v46.92c1-3.66,5-7.31,10.56-7.31,9.65,0,12,6.7,12,15.34v18.18a1,1,0,0,1-2,0V113.16Z" transform="translate(-18.36 -57.19)"/>
    <path d="M343.86,115.29c0,7.92,4.77,15,14.42,15a20,20,0,0,0,12-3.76c1.32-.91,2.13.91,1.22,1.62-2.64,1.93-6,4.16-13.2,4.16-10.66,0-16.66-7.62-16.66-17.16s6.2-17.37,15.34-17.37c9.75,0,15.13,7.92,15.13,16.25,0,.91-.41,1.22-1.32,1.22H343.86Zm26.2-2c-.81-7.52-5.38-13.41-13.1-13.41s-12.19,5.89-13,13.41Z" transform="translate(-18.36 -57.19)"/>
  </g>
</svg>
