<svg id="Layer_1" data-name="Layer 1" xmlns="http://www.w3.org/2000/svg" viewBox="0 0 393.6 73.6">
  <defs>
    <style>
      .cls-1 {
        fill: #4b63a8;
      }

      .cls-2 {
        fill: #ffde17;
      }

      .cls-3 {
        fill: #231f20;
      }

      .cls-4 {
        fill: none;
      }
    </style>
  </defs>
  <title>crispy_logo</title>
  <g>
    <rect class="cls-1" x="57.3" width="291.5" height="73.6"/>
    <polygon class="cls-1" points="0 0 27 36.8 0 73.6 106.3 73.6 75.8 56.8 59.8 0 0 0"/>
    <polygon class="cls-1" points="393.6 0 366.7 36.8 393.6 73.6 319.5 73.6 317.8 56.8 333.8 0 393.6 0"/>
  </g>
  <g>
    <rect class="cls-2" x="140.2" y="13.6" width="5.3" height="40.6"/>
    <path class="cls-2" d="M226.2,77.2H212.1v40.6h5.2V103.4h8.3c9,0,15.2-5.5,15.2-13.5S234.6,77.2,226.2,77.2ZM226,98.7h-8.7V81.9H226c5.7,0,9.5,3.3,9.5,8.3S231.6,98.7,226,98.7Z" transform="translate(-2.9 -63.6)"/>
    <path class="cls-2" d="M124.2,89.4c0-7.5-6.4-12.2-14.4-12.2H95.1v40.6h5.2V102.2H109l9.5,15.6h6.4l-10.2-16.3C120.4,99.7,124.2,94.8,124.2,89.4Zm-23.9,8.4V81.9h9.4c5.5,0,9.2,3.1,9.2,7.8s-3.8,8.1-9.3,8.1Z" transform="translate(-2.9 -63.6)"/>
    <path class="cls-2" d="M44.2,97.5c0,12,9,21.2,20.8,21.2,3.6,0,8.5-.7,11.5-2.6v-5.2a21.37,21.37,0,0,1-10.3,2.7c-9.9,0-16.8-6.7-16.8-16.2s6.7-15.9,16.4-15.9a18.67,18.67,0,0,1,10.6,3V79.2c-2.7-1.7-7.1-2.7-11.4-2.7C53.1,76.5,44.2,85.5,44.2,97.5Z" transform="translate(-2.9 -63.6)"/>
    <path class="cls-2" d="M172.2,87.7c0-3.7,3.7-6.3,8.9-6.3A18.73,18.73,0,0,1,191.6,85V79.6a20.45,20.45,0,0,0-11.1-2.9c-8,0-13.4,4.6-13.4,11.4,0,13.2,21.3,10.3,21.3,18.9,0,3.7-4.1,6.4-9.6,6.4a18.65,18.65,0,0,1-12.1-4.3v5.7a20.69,20.69,0,0,0,12.9,3.5c8.4,0,14.1-4.8,14.1-11.7C193.7,93.4,172.2,96.4,172.2,87.7Z" transform="translate(-2.9 -63.6)"/>
    <path class="cls-2" d="M331.1,87.7c0-3.7,3.7-6.3,8.9-6.3A18.73,18.73,0,0,1,350.5,85V79.6a20.45,20.45,0,0,0-11.1-2.9c-8,0-13.4,4.6-13.4,11.4,0,13.2,21.3,10.3,21.3,18.9,0,3.7-4.1,6.4-9.6,6.4a18.65,18.65,0,0,1-12.1-4.3v5.7a20.69,20.69,0,0,0,12.9,3.5c8.4,0,14.1-4.8,14.1-11.7C352.6,93.4,331.1,96.4,331.1,87.7Z" transform="translate(-2.9 -63.6)"/>
    <polygon class="cls-2" points="298.9 25.6 301.5 25.6 305.5 13.6 299.6 13.6 298.9 25.6"/>
    <polygon class="cls-2" points="265.1 32.2 264.4 32.2 252.9 13.6 246.4 13.6 262.1 37.8 262.1 54.2 267.3 54.2 267.3 37.8 283.1 13.6 276.6 13.6 265.1 32.2"/>
    <path class="cls-3" d="M65.2,75.6c-12.5,0-21.8,9.4-21.8,21.9a22.07,22.07,0,0,0,6.7,16.2l5.9,5.9a21.86,21.86,0,0,0,16.2,6.8c4.6,0,9.4-1.1,12.3-3v-6.6L77,109.6a19.68,19.68,0,0,1-10.8,3.1,17.15,17.15,0,0,1-7.4-1.5,12.85,12.85,0,0,1-2-7.6c0-8.9,6.3-15.1,15.6-15.1a18.18,18.18,0,0,1,11.4,4.2l.7-.3V85.8l-7.3-7.3A25.63,25.63,0,0,0,65.2,75.6Zm11.3,8.9a18.9,18.9,0,0,0-10.6-3c-9.7,0-16.4,6.5-16.4,15.9s6.9,16.2,16.8,16.2a20.58,20.58,0,0,0,10.3-2.7v5.2c-3,1.8-7.9,2.6-11.5,2.6-11.8,0-20.8-9.1-20.8-21.2s8.9-21.1,20.9-21.1a23.15,23.15,0,0,1,11.4,2.7C76.5,79.2,76.5,84.5,76.5,84.5Z" transform="translate(-2.9 -63.6)"/>
    <path class="cls-3" d="M118.9,89.7c0-4.7-3.7-7.8-9.2-7.8h-9.4V97.8h9.3C115.1,97.8,118.9,94.5,118.9,89.7ZM109.6,97H108V89.3h8.8a5.28,5.28,0,0,1,1.3.1v.4C118.1,94.1,114.7,97,109.6,97Z" transform="translate(-2.9 -63.6)"/>
    <path class="cls-3" d="M131.5,95.9c0-3.9-1.4-6.7-4.7-10l-5.7-5.5c-2.2-2.1-5.7-4-11.3-4H94.3v42l7.7,7.4h6.3V109.9h4.4l5.2,8.6,9.7,7.3h8.2l-11.5-18.2A13.43,13.43,0,0,0,131.5,95.9Zm-6.6,21.9h-6.4L109,102.2h-8.7v15.6H95.1V77.2h14.7c8,0,14.4,4.7,14.4,12.2,0,5.4-3.8,10.3-9.5,12.2Z" transform="translate(-2.9 -63.6)"/>
    <path class="cls-3" d="M142.3,76.4v42l7.4,7.4h6.7v-42L149,76.4Zm6.1,41.4h-5.3V77.2h5.3Z" transform="translate(-2.9 -63.6)"/>
    <path class="cls-3" d="M191.7,99.4c-3-3-7.7-4.5-12-6,.8-2.6,3.8-4.3,8-4.3,3.6,0,8,1.7,11.3,4.1l.7-.3V86.3L192.4,79a21.65,21.65,0,0,0-11.8-3.1c-8.5,0-14.3,5-14.3,12.3,0,3.3,1,5.2,3.2,8l4.5,5.7c3,3.9,8.5,5.1,13.1,7.4-1.2,2.1-4.3,3.5-8.2,3.5a17.87,17.87,0,0,1-12.2-4.7l-.7.3v7l7.3,7.3c2.9,2.2,7.4,4,13.6,3.9,8.5,0,14.3-5.2,14.3-12.6a10.43,10.43,0,0,0-3.3-8.2Zm-12.1,19c-5.9.1-10.2-1.5-12.9-3.5v-5.7a18.84,18.84,0,0,0,12.1,4.3c5.5,0,9.6-2.7,9.6-6.4,0-8.6-21.3-5.7-21.3-18.9,0-6.8,5.4-11.4,13.4-11.4a20.21,20.21,0,0,1,11.1,2.9V85a19,19,0,0,0-10.5-3.6c-5.3,0-8.9,2.6-8.9,6.3,0,8.7,21.5,5.7,21.5,19C193.7,113.6,188,118.4,179.6,118.4Z" transform="translate(-2.9 -63.6)"/>
    <path class="cls-3" d="M237.8,80.5c-2.2-2.2-6.4-4.1-11.6-4.1H211.3v42l7.4,7.4h6.6v-15h7.5c8.8,0,15.1-6,15.1-14.3a13.82,13.82,0,0,0-4.2-10.1Zm-12.1,22.9h-8.3v14.4h-5.2V77.2h14.1c8.4,0,14.7,4.8,14.7,12.7S234.7,103.4,225.7,103.4Z" transform="translate(-2.9 -63.6)"/>
    <path class="cls-4" d="M234.7,89.4a7.57,7.57,0,0,0-1.5-.1H225v8.6h1c5.1,0,8.7-3.2,8.7-7.7Z" transform="translate(-2.9 -63.6)"/>
    <g>
      <path class="cls-4" d="M234.7,89.4a7.57,7.57,0,0,0-1.5-.1H225v8.6h1c5.1,0,8.7-3.2,8.7-7.7Z" transform="translate(-2.9 -63.6)"/>
      <path class="cls-3" d="M226,81.9h-8.7V98.7H226c5.6,0,9.5-3.5,9.5-8.5S231.8,81.9,226,81.9Zm0,15.9h-1V89.2h8.1a7.57,7.57,0,0,1,1.5.1v.8C234.7,94.7,231.1,97.8,226,97.8Z" transform="translate(-2.9 -63.6)"/>
    </g>
    <path class="cls-3" d="M279.1,76.4l-8,12.9-3.5-5.6-11.5-7.3h-8.4l16.4,25.3v16.7l7.4,7.4h6.6V105.7L292.3,84l-5.4-7.6Zm-8.9,25v16.4H265V101.4L249.3,77.2h6.5l11.5,18.6h.7l11.5-18.6H286Z" transform="translate(-2.9 -63.6)"/>
    <path class="cls-3" d="M301.7,76.4,301,89.8l6.8,7.4h3.8L316,83.9l-6.8-7.4-7.5-.1Zm2.7,12.8h-2.6l.7-12h5.9Z" transform="translate(-2.9 -63.6)"/>
    <path class="cls-3" d="M350.6,99.4c-3-3-7.7-4.5-12-6,.8-2.6,3.8-4.3,8-4.3,3.6,0,8,1.7,11.3,4.1l.7-.3V86.3L351.3,79a21.65,21.65,0,0,0-11.8-3.1c-8.5,0-14.3,5-14.3,12.3,0,3.3,1,5.2,3.2,8l4.5,5.7c3,3.9,8.5,5.1,13.1,7.4-1.2,2.1-4.3,3.5-8.2,3.5a17.87,17.87,0,0,1-12.2-4.7l-.7.3v7l7.3,7.3c2.9,2.2,7.4,4,13.6,3.9,8.5,0,14.3-5.2,14.3-12.6a10.43,10.43,0,0,0-3.3-8.2Zm-12.1,19c-5.9.1-10.1-1.5-12.9-3.5v-5.7a18.84,18.84,0,0,0,12.1,4.3c5.5,0,9.6-2.7,9.6-6.4,0-8.6-21.3-5.7-21.3-18.9,0-6.8,5.4-11.4,13.4-11.4a20.21,20.21,0,0,1,11.1,2.9V85A19,19,0,0,0,340,81.4c-5.3,0-8.9,2.6-8.9,6.3,0,8.7,21.5,5.7,21.5,19C352.6,113.6,346.9,118.4,338.5,118.4Z" transform="translate(-2.9 -63.6)"/>
  </g>
</svg>
