<?xml version="1.0" encoding="utf-8"?>
<!-- Generator: Adobe Illustrator 23.0.4, SVG Export Plug-In . SVG Version: 6.00 Build 0)  -->
<svg version="1.1" id="Layer_1" xmlns="http://www.w3.org/2000/svg" xmlns:xlink="http://www.w3.org/1999/xlink" x="0px" y="0px"
	 viewBox="0 0 100 100" style="enable-background:new 0 0 100 100;" xml:space="preserve">
<style type="text/css">
	.st0{fill:#FFFFFF;}
</style>
<path class="st0" d="M53.49,11.5l10.66,11.3l0.26-4.98c0.02-1.88,1.1-3.14,3.85-3.45l9.14,0c2.16,1.26,3.53,3.28,3.02,4.61
	l-0.29,19.15l8.79,8.99c0.35,0.36,0.69,0.76,0.82,1.24c1.42,5.53-3.28,8.14-3.32,7.37l-6.89,0l0.39,32.29
	c0.21,2.53-1.33,3.82-3.67,4.54l-16.97,0.07l-0.09-27.07c-0.04-2.08-1.59-3.53-4.75-4.32H42.76c-2.65,0.53-4.26,2.41-4.92,4.64v27
	l-16.68-0.1c-2.76,0.23-4.41-1.07-4.32-4.75l0.14-32.43h-6.43c-1.96-0.33-3.41-0.85-3.78-4.73c-0.1-1.04,0.26-2.07,0.99-2.81
	l37.36-37.78C48.2,8.71,51.32,8.79,53.49,11.5z"/>
</svg>
