<?xml version="1.0" encoding="utf-8"?>
<!-- Generator: Adobe Illustrator 23.0.4, SVG Export Plug-In . SVG Version: 6.00 Build 0)  -->
<svg version="1.1" id="Layer_1" xmlns="http://www.w3.org/2000/svg" xmlns:xlink="http://www.w3.org/1999/xlink" x="0px" y="0px"
	 viewBox="0 0 180 180" style="enable-background:new 0 0 180 180;" xml:space="preserve">
<style type="text/css">
	.st0{display:none;fill:#799850;}
	.st1{enable-background:new    ;}
</style>
<rect class="st0" width="180" height="180"/>
<g class="st1">
	<path d="M139.1,40.2c-1.5-10.8-4.1-15.9-18.2-15.9H98.6v122.3c0,8.7,2.6,12,11.3,12l-2.6,9.5H71.4l-2.6-9.5c9,0,11.3-3.3,11.3-12
		V24.3H57.8c-14.1,0-16.7,5.1-18.2,15.9l-8.5-2.8L34,10.2h110.7l2.8,27.2L139.1,40.2z"/>
</g>
<g class="st1">
	<path d="M118.9,144.8c-9.9,0-17-5.4-17-19.5V49.5c0-14.1,7.1-20,17-20c14,0,18,6.8,18,22.7c0,2.6-0.3,7.5-0.6,9.2l-3.2-0.2
		c0.5-3.1,0.6-6.7,0.6-8.9c0-14.4-3.6-20-14.9-20c-7,0-13.6,4.7-13.6,16.2V126c0,11.5,6.7,15.7,13.6,15.7c10.5,0,14.8-6.8,14.8-19.5
		c0-2.3-0.5-7.9-0.8-10.2l3.4-0.3c0.3,1.8,0.6,8.1,0.6,10.7C136.7,136.6,131.3,144.8,118.9,144.8z"/>
</g>
<g class="st1">
	<path d="M41.8,122.6c0-2.6,0.3-8.9,0.6-10.7l3.4,0.3c-0.3,2.3-0.8,7.9-0.8,10.2c0,12.7,4.2,19.5,14.8,19.5c7,0,13.6-4.2,13.6-15.7
		V48.7c0-11.5-6.7-16.2-13.6-16.2c-11.4,0-14.9,5.5-14.9,20c0,2.3,0.2,5.8,0.6,8.9l-3.2,0.2c-0.3-1.8-0.6-6.7-0.6-9.2
		c0-15.9,4.1-22.7,18-22.7c9.9,0,17,5.8,17,20v75.9c0,14.1-7.1,19.5-17,19.5C47.2,144.9,41.8,136.6,41.8,122.6z"/>
</g>
</svg>
