<?xml version="1.0" encoding="utf-8"?>
<!-- Generator: Adobe Illustrator 24.0.1, SVG Export Plug-In . SVG Version: 6.00 Build 0)  -->
<svg version="1.1" id="Layer_1" xmlns="http://www.w3.org/2000/svg" xmlns:xlink="http://www.w3.org/1999/xlink" x="0px" y="0px"
	 viewBox="0 0 408 783" style="enable-background:new 0 0 408 783;" xml:space="preserve">
<style type="text/css">
	.st0{fill:#FFFFFF;}
</style>
<g id="iphoneoutline">
	<path class="st0" d="M356.1,5H52.9C25.9,5,4,26.9,4,53.9v676.1c0,27,21.9,48.9,48.9,48.9h303.1c27,0,48.9-21.9,48.9-48.9V53.9
		C405,26.9,383.1,5,356.1,5z M375.7,678.3h-339V78.9h339V678.3z"/>
	<path d="M358.8,5.6c24.7,0,44.7,20.9,44.7,46.6v679.6c0,25.7-20,46.6-44.7,46.6H49.7C25,778.4,5,757.6,5,731.8V52.2
		C5,26.5,25,5.6,49.7,5.6H358.8 M358.8,4H49.7C24.2,4,3.5,25.6,3.5,52.2l0,0v679.6c0,26.6,20.7,48.2,46.2,48.2l0,0h309.1
		c25.5,0,46.2-21.5,46.2-48.2l0,0V52.2C405,25.6,384.3,4,358.8,4L358.8,4L358.8,4z"/>
	<path d="M361.3,11.9c19.9,0,36.1,16.9,36.1,37.7v683.2c0,20.8-16.2,37.7-36.1,37.7H48.7c-19.9,0-36.1-16.9-36.1-37.7V49.6
		c0-20.8,16.2-37.7,36.1-37.7L361.3,11.9 M361.3,10.3H48.7c-20.8,0-37.6,17.6-37.7,39.3v683.2c0,21.7,16.9,39.3,37.7,39.3h312.6
		c20.8,0,37.6-17.6,37.7-39.3V49.6C398.9,27.9,382.1,10.3,361.3,10.3L361.3,10.3z"/>
	<path d="M203.5,696.2c15.1,0,27.3,12.7,27.3,28.4S218.6,753,203.5,753s-27.3-12.7-27.3-28.4l0,0C176.2,709,188.4,696.2,203.5,696.2
		 M203.5,694.7c-15.9,0-28.8,13.4-28.8,30s12.9,30,28.8,30s28.8-13.4,28.8-30S219.4,694.7,203.5,694.7L203.5,694.7z"/>
	<path d="M374,78.4l0.2,598.3H36.7V77.9 M375.8,76.3H35.2v602h340.5L375.8,76.3L375.8,76.3z"/>
	<path d="M250.5,41.9v4.7h-93.9v-4.7H250.5 M252,40.3h-97v7.9h97V40.3z"/>
</g>
</svg>
