<?xml version="1.0" encoding="utf-8"?>
<!-- Generator: Adobe Illustrator 24.0.1, SVG Export Plug-In . SVG Version: 6.00 Build 0)  -->
<svg version="1.1" id="Layer_1" xmlns="http://www.w3.org/2000/svg" xmlns:xlink="http://www.w3.org/1999/xlink" x="0px" y="0px"
	 viewBox="0 0 1366 768" style="enable-background:new 0 0 1366 768;" xml:space="preserve">
<g id="iphoneoutline">
	<g>
		<path d="M743.5,116c16.3,0,29.5,13.2,29.5,29.5v430c0,16.3-13.2,29.5-29.5,29.5h-204c-16.3,0-29.5-13.2-29.5-29.5v-430
			c0-16.3,13.2-29.5,29.5-29.5H743.5 M743.5,115h-204c-16.8,0-30.5,13.7-30.5,30.5v430c0,16.8,13.7,30.5,30.5,30.5h204
			c16.8,0,30.5-13.7,30.5-30.5v-430C774,128.7,760.3,115,743.5,115L743.5,115z"/>
	</g>
	<g>
		<path d="M745.1,120c13.2,0,23.9,10.7,23.9,23.9v432.3c0,13.2-10.7,23.9-23.9,23.9H538.9c-13.2,0-23.9-10.7-23.9-23.9V143.9
			c0-13.2,10.7-23.9,23.9-23.9H745.1 M745.1,119H538.9c-13.7,0-24.9,11.1-24.9,24.9v432.3c0,13.7,11.1,24.9,24.9,24.9h206.3
			c13.7,0,24.9-11.1,24.9-24.9V143.9C770,130.1,758.9,119,745.1,119L745.1,119z"/>
	</g>
	<g>
		<path d="M641,553c9.9,0,18,8.1,18,18s-8.1,18-18,18s-18-8.1-18-18S631.1,553,641,553 M641,552c-10.5,0-19,8.5-19,19s8.5,19,19,19
			s19-8.5,19-19S651.5,552,641,552L641,552z"/>
	</g>
	<g>
		<path d="M757,163v377H525V163H757 M758,162H524v379h234V162L758,162z"/>
	</g>
	<g>
		<path d="M672,139v3h-62v-3H672 M673,138h-64v5h64V138L673,138z"/>
	</g>
</g>
</svg>
