<?xml version="1.0" encoding="utf-8"?>
<!-- Generator: Adobe Illustrator 24.0.1, SVG Export Plug-In . SVG Version: 6.00 Build 0)  -->
<svg version="1.1" id="Layer_1" xmlns="http://www.w3.org/2000/svg" xmlns:xlink="http://www.w3.org/1999/xlink" x="0px" y="0px"
	 viewBox="0 0 265 491" style="enable-background:new 0 0 265 491;" xml:space="preserve">
<title>Asset 1</title>
<g id="Layer_2_1_">
	<g id="Layer_1-2">
		<g id="iphoneoutline">
			<path d="M234.5,1C250.8,1,264,14.2,264,30.5v430c0,16.3-13.2,29.5-29.5,29.5h-204C14.2,490,1,476.8,1,460.5v-430
				C1,14.2,14.2,1,30.5,1H234.5 M234.5,0h-204C13.7,0,0,13.7,0,30.5c0,0,0,0,0,0v430C0,477.3,13.6,491,30.5,491c0,0,0,0,0,0h204
				c16.8,0,30.5-13.6,30.5-30.5c0,0,0,0,0,0v-430C265,13.7,251.4,0,234.5,0C234.5,0,234.5,0,234.5,0L234.5,0z"/>
			<path d="M236.1,5C249.3,5,260,15.7,260,28.9v432.3c0,13.2-10.7,23.8-23.9,23.9H29.9C16.7,485,6,474.3,6,461.1V28.9
				C6,15.7,16.7,5,29.9,5H236.1 M236.2,4H29.9C16.1,4,5,15.1,5,28.9v432.3C5,474.9,16.1,486,29.9,486h206.3
				c13.7,0,24.8-11.1,24.8-24.9V28.9C261,15.1,249.9,4,236.2,4L236.2,4z"/>
			<path d="M132,438c9.9,0,18,8.1,18,18s-8.1,18-18,18s-18-8.1-18-18l0,0C114,446.1,122.1,438,132,438 M132,437
				c-10.5,0-19,8.5-19,19s8.5,19,19,19s19-8.5,19-19S142.5,437,132,437L132,437z"/>
			<path d="M248,48v377H16V48H248 M249,47H15v379h234V47z"/>
			<path d="M163,24v3h-62v-3H163 M164,23h-64v5h64V23z"/>
		</g>
	</g>
</g>
</svg>
