<?xml version="1.0" encoding="utf-8"?>
<!-- Generator: Adobe Illustrator 23.0.4, SVG Export Plug-In . SVG Version: 6.00 Build 0)  -->
<svg version="1.1" id="Layer_1" xmlns="http://www.w3.org/2000/svg" xmlns:xlink="http://www.w3.org/1999/xlink" x="0px" y="0px"
	 viewBox="0 0 100 100" style="enable-background:new 0 0 100 100;" xml:space="preserve">
<style type="text/css">
	.st0{fill:#FFFFFF;stroke:#FFFFFF;stroke-width:0.1319;stroke-miterlimit:10;}
	.st1{fill:none;stroke:#FFFFFF;stroke-width:8.5608;stroke-miterlimit:10;}
	.st2{fill:#FFFFFF;stroke:#FFFFFF;stroke-width:0.0916;stroke-miterlimit:10;}
</style>
<g>
	<path class="st0" d="M11.56,19.51l-0.31,0c-0.13,0-0.23,0.11-0.22,0.24l1.09,15.38c0,0.06-0.02,0.12-0.05,0.16
		c-0.26,0.3-0.56,0.24-0.89-0.04c-0.04-0.04-0.07-0.09-0.07-0.14L9.53,19.76c-0.01-0.12-0.12-0.21-0.24-0.2l0,0
		c-0.12,0.01-0.21,0.11-0.21,0.23l0.58,15.23c0,0.04-0.01,0.09-0.03,0.12c-0.37,0.6-0.79,0.71-1.28,0.21
		c-0.04-0.04-0.06-0.09-0.06-0.15L7.67,19.88c0-0.12-0.1-0.21-0.22-0.21l-0.05,0c-0.12,0-0.22,0.1-0.22,0.22L6.93,35.05
		c0,0.04-0.01,0.07-0.03,0.11c-0.31,0.55-0.64,0.67-1.02,0.06c-0.02-0.03-0.03-0.07-0.03-0.11l-0.1-15.16c0-0.12-0.1-0.22-0.22-0.22
		l-0.18,0c-0.12,0-0.22,0.1-0.22,0.22c-0.04,9.59-5.31,19.58,2.58,24.75c0.06,0.04,0.1,0.11,0.1,0.19
		c-0.3,15.06-1.16,35.55-0.2,38.41c0.01,0.03,0.03,0.06,0.05,0.08c1.83,1.64,3.7,1.63,5.54-0.05c0.01-0.01,0.02-0.03,0.02-0.04
		c0.86-2.07-1.24-23.38-2.39-38.48c-0.01-0.08,0.04-0.16,0.11-0.2c7.54-4.65,1.47-15.06,0.85-24.87
		C11.78,19.6,11.68,19.51,11.56,19.51z"/>
	<path class="st0" d="M94.16,19.75c-0.29-0.37-0.76-0.3-1.44,0.31c-0.1,0.09-0.18,0.2-0.23,0.31c-4.49,9.39-4.54,20.08-3.3,31.14
		c0.04,0.39,0.31,0.73,0.69,0.85c0.03,0.01,0.07,0.02,0.1,0.03c0.47,0.11,0.79,0.56,0.76,1.04c-0.79,11.79-1.11,22.01-0.5,29.09
		c0.06,0.67,0.38,1.38,1,1.64c1.63,0.67,3.16,0.64,4.4-1.1c0.79,1.94-2.7-45.05-1.3-62.64C94.36,20.18,94.31,19.94,94.16,19.75z"/>
	<circle class="st1" cx="50.77" cy="53.01" r="29.53"/>
	<circle class="st2" cx="50.68" cy="53.1" r="23.19"/>
</g>
</svg>
