<?xml version="1.0" encoding="utf-8"?>
<!-- Generator: Adobe Illustrator 24.0.1, SVG Export Plug-In . SVG Version: 6.00 Build 0)  -->
<svg version="1.1" id="Layer_1" xmlns="http://www.w3.org/2000/svg" xmlns:xlink="http://www.w3.org/1999/xlink" x="0px" y="0px"
	 viewBox="0 0 1366 768" style="enable-background:new 0 0 1366 768;" xml:space="preserve">
<g id="iphoneoutline">
	<g>
		<path d="M743.5,106c16.3,0,29.5,13.2,29.5,29.5v430c0,16.3-13.2,29.5-29.5,29.5h-204c-16.3,0-29.5-13.2-29.5-29.5v-430
			c0-16.3,13.2-29.5,29.5-29.5H743.5 M743.5,105h-204c-16.8,0-30.5,13.7-30.5,30.5v430c0,16.8,13.7,30.5,30.5,30.5h204
			c16.8,0,30.5-13.7,30.5-30.5v-430C774,118.7,760.3,105,743.5,105L743.5,105z"/>
	</g>
	<g>
		<path d="M745.1,110c13.2,0,23.9,10.7,23.9,23.9v432.3c0,13.2-10.7,23.9-23.9,23.9H538.9c-13.2,0-23.9-10.7-23.9-23.9V133.9
			c0-13.2,10.7-23.9,23.9-23.9H745.1 M745.1,109H538.9c-13.7,0-24.9,11.1-24.9,24.9v432.3c0,13.7,11.1,24.9,24.9,24.9h206.3
			c13.7,0,24.9-11.1,24.9-24.9V133.9C770,120.1,758.9,109,745.1,109L745.1,109z"/>
	</g>
	<g>
		<path d="M641,543c9.9,0,18,8.1,18,18s-8.1,18-18,18s-18-8.1-18-18S631.1,543,641,543 M641,542c-10.5,0-19,8.5-19,19s8.5,19,19,19
			s19-8.5,19-19S651.5,542,641,542L641,542z"/>
	</g>
	<g>
		<path d="M757,153v377H525V153H757 M758,152H524v379h234V152L758,152z"/>
	</g>
	<g>
		<path d="M672,129v3h-62v-3H672 M673,128h-64v5h64V128L673,128z"/>
	</g>
</g>
</svg>
