<?xml version="1.0" encoding="utf-8"?>
<!-- Generator: Adobe Illustrator 23.0.4, SVG Export Plug-In . SVG Version: 6.00 Build 0)  -->
<svg version="1.1" id="Layer_1" xmlns="http://www.w3.org/2000/svg" xmlns:xlink="http://www.w3.org/1999/xlink" x="0px" y="0px"
	 viewBox="0 0 100 100" style="enable-background:new 0 0 100 100;" xml:space="preserve">
<style type="text/css">
	.st0{fill:#FFFFFF;}
</style>
<g>
	<path class="st0" d="M42.06,40.51c0,0.98,0.16,1.82,0.48,2.52c0.32,0.7,0.77,1.28,1.36,1.75c0.58,0.47,1.27,0.88,2.06,1.22
		c0.79,0.34,1.66,0.64,2.6,0.9V33.67c-1.81,0.19-3.35,0.84-4.61,1.95C42.69,36.73,42.06,38.36,42.06,40.51z"/>
	<path class="st0" d="M56.87,55.04c-0.64-0.53-1.41-0.97-2.32-1.33c-0.9-0.36-1.87-0.69-2.88-0.99v14.19
		c1.05-0.08,2.02-0.26,2.91-0.57c0.88-0.3,1.66-0.74,2.32-1.33c0.66-0.58,1.17-1.32,1.53-2.2c0.36-0.89,0.54-1.93,0.54-3.14
		c0-1.09-0.19-2.01-0.57-2.74C58.02,56.2,57.51,55.56,56.87,55.04z"/>
	<path class="st0" d="M97.39,39.58l-32.97-4.12L49.46,8.1L34.97,35.71l-32.89,4.7L26.1,61.6l-5.36,30.26l29.33-14.52l29.58,14.01
		l-5.89-30.16L97.39,39.58z M63.12,64.08c-0.62,1.43-1.48,2.67-2.57,3.7c-1.09,1.04-2.39,1.86-3.9,2.46
		c-1.51,0.6-3.17,0.98-4.97,1.13v4.64h-3.11v-4.64c-3.77-0.38-6.76-1.69-8.99-3.93c-2.22-2.24-3.49-5.34-3.79-9.3h4.8
		c0.08,2.53,0.86,4.52,2.35,5.99c1.49,1.47,3.36,2.39,5.62,2.77V51.93c-2-0.49-3.72-1.03-5.17-1.61c-1.45-0.58-2.66-1.28-3.62-2.09
		c-0.96-0.81-1.67-1.8-2.12-2.97c-0.45-1.17-0.68-2.58-0.68-4.24c0-1.7,0.3-3.25,0.9-4.66c0.6-1.41,1.42-2.64,2.46-3.67
		c1.04-1.04,2.26-1.86,3.67-2.46c1.41-0.6,2.93-0.96,4.55-1.07v-3.73h3.11v3.79c3.05,0.38,5.48,1.51,7.29,3.39
		c1.81,1.88,3.09,4.49,3.84,7.8H58c-0.75-3.73-2.86-5.92-6.33-6.56v13.91l3.39,0.9c0.75,0.19,1.64,0.52,2.66,0.99
		c1.02,0.47,2,1.12,2.94,1.95c0.94,0.83,1.74,1.87,2.4,3.11c0.66,1.24,0.99,2.73,0.99,4.47C64.05,61.01,63.74,62.65,63.12,64.08z"/>
</g>
</svg>
