<?xml version="1.0" encoding="utf-8"?>
<!-- Generator: Adobe Illustrator 23.0.3, SVG Export Plug-In . SVG Version: 6.00 Build 0)  -->
<svg version="1.1" id="Layer_1" xmlns="http://www.w3.org/2000/svg" xmlns:xlink="http://www.w3.org/1999/xlink" x="0px" y="0px"
	 viewBox="0 0 400 200" style="enable-background:new 0 0 400 200;" xml:space="preserve">
<style type="text/css">
	.st0{fill:#231F20;}
	.st1{fill:#3F6C05;}
	.st2{fill:#007431;}
	.st3{fill:#FFFFFF;}
</style>
<g>
	<g>
		<g>
			<path class="st0" d="M204.61,177.96c-0.2,0.05-0.32,0.08-0.37,0.09C204.29,178.03,204.41,178.01,204.61,177.96z"/>
			<path class="st0" d="M204.17,177.81L204.17,177.81L204.17,177.81c0.05-0.02,0.16-0.04,0.33-0.08l0.06-0.02l0.12,0.49l-0.17,0.04
				c-0.09,0.02-0.15,0.04-0.18,0.05l0,0l0,0L204.17,177.81z"/>
		</g>
		<path class="st1" d="M149.58,74.65c-1.11,0.27-2.67,0.72-4.04,1.33c-2.08,0.94-3.26,2.3-3.32,4.4c-0.07,2.49,1.39,3.79,3.49,3.85
			c1.1,0.03,2.41-0.48,3.65-1.59L149.58,74.65z"/>
		<path class="st1" d="M192.12,64.93c-3.1-0.09-4.72,2.66-4.92,9.5c-0.22,7.59,1.68,12.84,5.43,12.95c3.1,0.09,4.72-2.66,4.92-9.5
			C197.76,70.34,195.87,65.04,192.12,64.93z"/>
		<path class="st1" d="M272.3,125.35c-1.11,0.27-2.67,0.72-4.04,1.33c-2.08,0.94-3.26,2.3-3.32,4.4c-0.07,2.49,1.39,3.79,3.49,3.85
			c1.1,0.03,2.41-0.48,3.65-1.59L272.3,125.35z"/>
		<path class="st1" d="M202.5,181.1l3.2-3.4c-0.12,0.03-0.24,0.06-0.35,0.09c-0.27,0.07-0.48,0.12-0.66,0.16
			c-0.03,0.01-0.06,0.02-0.08,0.02c-0.2,0.05-0.32,0.08-0.37,0.09c-0.01,0.01-0.02,0.01-0.02,0.01s0.01,0,0.02-0.01
			c0.05-0.01,0.17-0.04,0.37-0.09c0.03-0.01,0.05-0.02,0.08-0.02c0.17-0.04,0.39-0.09,0.66-0.16c0.11-0.03,0.23-0.05,0.35-0.09
			c4.49-1.06,18.44-4.34,30.8-7.24c-6.32-2.16,10.78-8.46,40.77-17.03l0.49-3.47c-1.8-1.69,13.61-6.91,53.17-17.06l1.26-3.45
			c1.07-2.2,6.99-4.89,38.25-10.13c4.41,0.44,9.99,0.99,16.6,1.64c6.4-0.91,9.84-2.94,7.56-7.14c-0.94-6.08-16.31-19.5-39.22-36.76
			c-14.69-6.9-27.32-13.74-27.69-20.16c-23.61-5.68-46.14-11.33-47.56-16.09c-23.91-5.14-51.74-10.11-52.98-16.24
			c-10.53-3.08-21.91-4.88-35.54-3.35c-18.71,1.22-29.02,0.39-28.18-3.14c-18.27,2.41-34.83,6.89-48.83,14.47
			C96.31,42.56,80.16,53.49,69.85,66.9c-11.6,13.53-20.4,27.28-26.36,41.24c-1.04,3.75-4.06,4.83-8.63,3.84
			c-11.33-0.72-22.06-2-28.44-7.4l-2.18,8.46c-1.4,5.1,14.59,9.06,40.31,12.39c27.52,40.47,58.19,55.65,90.52,57.6
			c-3.88-3.98,15.1-1.91,37.53,1.08C173.44,179.95,188.51,180.71,202.5,181.1z M214.3,52.93l-0.83,29.06
			c-0.14,4.79,0.24,5.5,2.13,5.91l0.79,0.17l-0.02,0.75c-1.05-0.03-3.7-0.16-5.64-0.21c-2-0.06-4.79-0.09-5.84-0.12l0.02-0.75
			l0.8-0.13c1.91-0.29,2.28-0.99,2.42-5.77l0.64-22.36c0.08-2.65-0.31-3.3-1.93-4.25l-0.99-0.58l0.02-0.55l7.84-1.62L214.3,52.93z
			 M115.61,85.91l0.02-0.75l1.6-0.25c2.96-0.46,3.48-1.1,3.65-7.14l0.7-24.41l-3.29,0.01c-4.4,0.02-5.98,1.08-7.57,4.23l-1.16,2.31
			l-0.8-0.02l1.27-9.41l0.9,0.03c1.17,1.04,1.86,1.25,13.65,1.59c12.33,0.35,13.14,0.18,14.61-0.78l0.9,0.03l-1.67,9.4l-0.8-0.02
			l-0.39-2.26c-0.55-3.36-1.72-4.5-6.21-4.72l-3.79-0.21l-0.7,24.41c-0.18,6.04,0.26,6.7,3.13,7.33l1.64,0.35l-0.02,0.75
			c-0.85-0.02-6.14-0.28-7.84-0.33C121.75,85.98,116.46,85.93,115.61,85.91z M137.19,81.73c0.1-3.4,1.99-4.99,7.09-6.69
			c1.72-0.55,3.63-1.14,5.34-1.54l0.1-3.4c0.13-4.45-1.18-5.98-3.58-6.05c-0.75-0.02-1.26,0.17-1.76,0.45
			c-0.53,4.63-1.52,6.2-3.38,6.15c-1.4-0.04-2.37-1.02-2.32-2.52c0.07-2.4,4.56-5.76,9.75-5.62c4.94,0.14,6.83,2.34,6.68,7.48
			l-0.38,13.18c-0.06,1.9,0.43,2.56,1.62,2.6c0.35,0.01,0.8,0.02,1-0.02l0.23,0.7c-1.11,0.47-2.37,0.78-4.22,0.73
			c-2.15-0.07-3.66-1.3-3.95-3.51c-2.11,2.09-4.25,3.48-7.04,3.4C139.58,87,137.09,85.18,137.19,81.73z M161.76,69.6
			c-1.48-4.09-2.06-4.96-3.89-5.36l-0.74-0.17l0.02-0.75c1.1,0.03,3.99,0.17,5.94,0.22c2,0.06,5.1,0.1,6.14,0.13l-0.02,0.75
			l-0.91,0.12c-1.4,0.21-1.72,0.7-1.74,1.5s0.2,1.81,0.52,2.76l4.04,12.41l3.94-10.03c0.75-1.88,1.2-3.46,1.23-4.51
			c0.03-1-0.55-1.72-1.84-1.95l-0.89-0.18l0.02-0.75c1.05,0.03,2.7,0.13,4.64,0.19c1.95,0.06,3,0.04,4.09,0.07l-0.02,0.75
			l-0.75,0.13c-1.76,0.3-2.54,1.33-4.25,5.32l-7.45,17.62l-1.26,0.21L161.76,69.6z M181.37,75.66c0.19-6.68,4.85-12.15,11.39-11.96
			c6.34,0.19,10.85,5.01,10.62,12.95c-0.19,6.69-4.85,12.15-11.39,11.96C185.65,88.42,181.14,83.6,181.37,75.66z M219.34,84.1
			c0.1-3.4,1.99-4.99,7.09-6.69c1.72-0.55,3.63-1.14,5.34-1.54l0.1-3.4c0.13-4.45-1.18-5.98-3.58-6.05
			c-0.75-0.02-1.26,0.17-1.76,0.45c-0.53,4.63-1.52,6.2-3.38,6.15c-1.4-0.04-2.37-1.02-2.32-2.52c0.07-2.4,4.57-5.76,9.75-5.62
			c4.94,0.14,6.83,2.34,6.68,7.48l-0.38,13.18c-0.06,1.9,0.43,2.56,1.62,2.6c0.35,0.01,0.8,0.02,1-0.02l0.23,0.7
			c-1.11,0.47-2.37,0.78-4.22,0.73c-2.15-0.07-3.66-1.3-3.95-3.51c-2.11,2.09-4.25,3.48-7.04,3.4
			C221.73,89.36,219.24,87.54,219.34,84.1z M248.75,112.62c4.04,0.12,6.12,2.58,5.98,7.37l-0.3,10.33c-0.14,4.89,0.2,5.4,2.13,5.91
			l0.64,0.17l-0.02,0.75c-1-0.03-3.75-0.16-5.69-0.21c-1.9-0.06-4.55-0.08-5.64-0.11l0.02-0.75l0.7-0.13
			c1.96-0.34,2.33-0.99,2.45-5.38l0.28-9.78c0.1-3.55-1.3-5.23-3.75-5.3c-1.65-0.05-3.01,0.56-4.4,1.57l-0.38,13.28
			c-0.13,4.4,0.25,5.06,2.19,5.51l0.69,0.17l-0.02,0.75c-1.15-0.04-3.79-0.16-5.74-0.22c-2-0.06-4.69-0.09-5.69-0.11l0.02-0.75
			l0.75-0.13c1.91-0.34,2.33-0.99,2.46-5.77l0.3-10.38c0.08-2.7-0.35-3.41-1.93-4.3l-1.04-0.58l0.02-0.55l7.89-1.62l0.58,0.46
			l-0.09,3.1C243.67,113.83,245.96,112.54,248.75,112.62z M225.26,112.4l-0.49,17.08c-0.14,4.79,0.19,5.5,2.08,5.91l0.79,0.17
			l-0.02,0.75c-1.05-0.03-3.65-0.16-5.64-0.21c-1.95-0.06-4.79-0.09-5.84-0.12l0.02-0.75l0.8-0.13c1.91-0.29,2.28-0.99,2.42-5.77
			l0.3-10.33c0.08-2.65-0.3-3.41-1.93-4.3l-0.99-0.53l0.02-0.6l7.84-1.57L225.26,112.4z M225.72,104.62
			c-0.05,1.8-1.54,3.1-3.49,3.05c-1.95-0.06-3.36-1.45-3.3-3.24c0.06-1.85,1.54-3.2,3.49-3.15
			C224.38,101.33,225.78,102.77,225.72,104.62z M133.11,116.44c0.33-11.28,8.84-17.38,16.98-17.15c4.3,0.12,7.16,1.16,9.62,2.53
			l0.91,8.32l-0.9-0.03l-0.94-1.98c-2.07-4.36-4.43-7.47-9.02-7.61c-5.99-0.17-9.85,5.31-10.13,15.25
			c-0.31,10.89,3.4,17.34,9.74,17.52c4.4,0.13,6.71-2.16,9.45-7.07l1.06-1.87l0.9,0.03l-1.28,8.01c-2.54,1.38-6.11,2.27-10.4,2.15
			C139.49,134.26,132.78,127.67,133.11,116.44z M167.19,127.72l0.3-10.23c0.08-2.65-0.25-3.41-1.93-4.3l-0.99-0.53l0.02-0.6
			l7.84-1.57l0.59,0.41l-0.46,16.03c-0.1,3.55,1.3,5.23,3.8,5.31c1.65,0.05,3.06-0.56,4.34-1.52l0.36-12.63
			c0.08-2.65-0.35-3.56-2.12-4.51l-0.99-0.53l0.02-0.6l8.09-1.56l0.59,0.41l-0.49,17.08c-0.14,4.89,0.19,5.45,2.13,5.91l0.69,0.17
			l-0.02,0.75c-1.8-0.05-5.9-0.17-7.94-0.13l-0.36-3.26c-2.41,2.08-4.69,3.36-7.49,3.28C169.13,134.97,167.05,132.56,167.19,127.72z
			 M192.21,124.39c0.22-7.69,5.58-13.38,11.82-13.2c4.64,0.14,7.27,2.46,7.21,4.75c-0.05,1.75-1.38,3.01-2.93,2.96
			c-1.9-0.06-3-1.79-3.27-6.04c-0.39-0.21-0.79-0.27-1.54-0.29c-3.4-0.1-5.88,2.93-6.05,8.82c-0.19,6.74,2.57,11.27,7.67,11.41
			c1.95,0.06,3.46-0.45,5.45-1.89l0.53,0.66c-2.37,2.63-5.13,4.6-9.17,4.48C195.97,135.89,192.02,131.03,192.21,124.39z
			 M259.91,132.44c0.1-3.4,1.99-4.99,7.09-6.69c1.72-0.55,3.63-1.14,5.34-1.54l0.1-3.4c0.13-4.45-1.18-5.98-3.58-6.05
			c-0.75-0.02-1.26,0.17-1.76,0.45c-0.53,4.63-1.52,6.2-3.38,6.15c-1.4-0.04-2.37-1.02-2.32-2.52c0.07-2.4,4.56-5.76,9.75-5.62
			c4.94,0.14,6.83,2.34,6.68,7.48l-0.38,13.18c-0.06,1.9,0.43,2.56,1.62,2.6c0.35,0.01,0.8,0.02,1-0.02l0.23,0.7
			c-1.11,0.47-2.37,0.78-4.22,0.73c-2.15-0.07-3.66-1.3-3.95-3.51c-2.11,2.09-4.25,3.48-7.04,3.4
			C262.3,137.7,259.81,135.88,259.91,132.44z"/>
		<path class="st2" d="M205.35,177.79c-0.27,0.07-0.49,0.12-0.66,0.16C204.86,177.9,205.09,177.85,205.35,177.79z"/>
		<path class="st1" d="M231.74,77.01c-1.11,0.27-2.67,0.72-4.04,1.33c-2.08,0.94-3.26,2.3-3.32,4.4c-0.07,2.49,1.39,3.79,3.49,3.85
			c1.1,0.03,2.41-0.48,3.65-1.59L231.74,77.01z"/>
	</g>
	
		<rect x="154.39" y="-3.9" transform="matrix(0.0204 -0.9998 0.9998 0.0204 98.6004 290.6451)" class="st1" width="86.46" height="197.82"/>
</g>
<path class="st3" d="M127.92,57.45l-1.27,8.56h-0.72l-0.41-2.04c-0.59-3.03-1.68-4.03-5.75-4.12l-3.44-0.09V81.9
	c0,5.48,0.41,6.07,3.03,6.56l1.49,0.27v0.68c-0.77,0-5.57-0.09-7.11-0.09s-6.34,0.09-7.11,0.09v-0.68l1.45-0.27
	c2.67-0.5,3.12-1.09,3.12-6.56V59.76l-2.99,0.09c-3.98,0.14-5.39,1.13-6.75,4.03l-1,2.13h-0.72l0.91-8.56h0.81
	c1.09,0.91,1.72,1.09,12.4,1.09c11.18,0,11.91-0.18,13.22-1.09L127.92,57.45L127.92,57.45z"/>
<path class="st3" d="M146.2,88.83c-1,0.45-2.13,0.77-3.8,0.77c-1.95,0-3.35-1.09-3.67-3.08c-1.86,1.95-3.76,3.26-6.29,3.26
	c-2.54,0-4.84-1.58-4.84-4.71c0-3.08,1.68-4.57,6.25-6.25c1.54-0.54,3.26-1.13,4.8-1.54V74.2c0-4.03-1.22-5.39-3.4-5.39
	c-0.68,0-1.13,0.18-1.58,0.45c-0.36,4.21-1.22,5.66-2.9,5.66c-1.27,0-2.17-0.86-2.17-2.22c0-2.17,3.98-5.34,8.69-5.34
	c4.48,0,6.25,1.95,6.25,6.61v11.95c0,1.72,0.45,2.31,1.54,2.31c0.32,0,0.72,0,0.91-0.05L146.2,88.83z M138.64,78.32
	c-1,0.27-2.4,0.72-3.62,1.31c-1.86,0.91-2.9,2.17-2.9,4.07c0,2.26,1.36,3.4,3.26,3.4c1,0,2.17-0.5,3.26-1.54V78.32z"/>
<path class="st3" d="M169.4,68.54l-0.68,0.14c-1.58,0.32-2.26,1.27-3.71,4.93l-6.29,16.16L157.59,90l-6.65-16.57
	c-1.45-3.67-1.99-4.44-3.67-4.75l-0.68-0.14v-0.68c1,0,3.62,0.05,5.39,0.05c1.81,0,4.62-0.05,5.57-0.05v0.68l-0.81,0.14
	c-1.27,0.23-1.54,0.68-1.54,1.4c0,0.72,0.23,1.63,0.54,2.49l3.98,11.14l3.3-9.19c0.63-1.72,1-3.17,1-4.12
	c0-0.91-0.54-1.54-1.72-1.72l-0.81-0.14v-0.68c0.95,0,2.44,0.05,4.21,0.05s2.72-0.05,3.71-0.05L169.4,68.54L169.4,68.54z"/>
<path class="st3" d="M179.83,89.87c-5.75,0-9.96-4.26-9.96-11.45c0-6.07,4.07-11.14,10-11.14c5.75,0,9.96,4.26,9.96,11.45
	C189.83,84.8,185.76,89.87,179.83,89.87z M179.33,68.41c-2.81,0-4.21,2.54-4.21,8.74c0,6.88,1.86,11.59,5.25,11.59
	c2.81,0,4.21-2.54,4.21-8.74C184.58,73.16,182.72,68.41,179.33,68.41z"/>
<path class="st3" d="M202.42,89.41c-0.95,0-3.35-0.05-5.12-0.05c-1.81,0-4.35,0.05-5.3,0.05v-0.68l0.72-0.14
	c1.72-0.32,2.04-0.95,2.04-5.3V63.02c0-2.4-0.36-2.99-1.86-3.8l-0.91-0.5v-0.5l7.06-1.68l0.54,0.41V83.3c0,4.35,0.36,4.98,2.08,5.3
	l0.72,0.14V89.41z"/>
<path class="st3" d="M225.36,88.83c-1,0.45-2.13,0.77-3.8,0.77c-1.95,0-3.35-1.09-3.67-3.08c-1.86,1.95-3.76,3.26-6.29,3.26
	s-4.84-1.58-4.84-4.71c0-3.08,1.68-4.57,6.25-6.25c1.54-0.54,3.26-1.13,4.8-1.54V74.2c0-4.03-1.22-5.39-3.4-5.39
	c-0.68,0-1.13,0.18-1.58,0.45c-0.36,4.21-1.22,5.66-2.9,5.66c-1.27,0-2.17-0.86-2.17-2.22c0-2.17,3.98-5.34,8.69-5.34
	c4.48,0,6.25,1.95,6.25,6.61v11.95c0,1.72,0.45,2.31,1.54,2.31c0.32,0,0.72,0,0.91-0.05L225.36,88.83z M217.8,78.32
	c-1,0.27-2.4,0.72-3.62,1.31c-1.86,0.91-2.9,2.17-2.9,4.07c0,2.26,1.36,3.4,3.26,3.4c1,0,2.17-0.5,3.26-1.54V78.32z"/>
<path class="st3" d="M156.91,129.36l-0.95,7.29c-2.26,1.31-5.48,2.22-9.37,2.22c-8.69,0-14.94-5.79-14.94-15.98
	c0-10.23,7.56-15.98,14.94-15.98c3.89,0,6.52,0.86,8.78,2.04l1.04,7.51h-0.81l-0.91-1.77c-1.99-3.89-4.21-6.65-8.38-6.65
	c-5.43,0-8.78,5.07-8.78,14.08c0,9.87,3.53,15.62,9.28,15.62c3.98,0,6.02-2.13,8.38-6.65l0.91-1.72L156.91,129.36L156.91,129.36z"/>
<path class="st3" d="M182.87,138.41c-1.63,0-5.34,0-7.2,0.09l-0.41-2.94c-2.13,1.95-4.16,3.17-6.7,3.17c-3.67,0-5.61-2.13-5.61-6.52
	v-9.28c0-2.4-0.32-3.08-1.86-3.85l-0.91-0.45v-0.54l7.06-1.63l0.54,0.36v14.53c0,3.21,1.31,4.71,3.58,4.71
	c1.49,0,2.76-0.59,3.89-1.49v-11.45c0-2.4-0.41-3.21-2.04-4.03l-0.91-0.45v-0.54l7.29-1.63l0.54,0.36v15.48
	c0,4.44,0.32,4.93,2.08,5.3l0.63,0.14L182.87,138.41L182.87,138.41z"/>
<path class="st3" d="M203.58,134.56c-2.08,2.44-4.53,4.3-8.19,4.3c-5.39,0-9.1-4.3-9.1-10.32c0-6.97,4.71-12.27,10.37-12.27
	c4.21,0,6.65,2.04,6.65,4.12c0,1.58-1.18,2.76-2.58,2.76c-1.72,0-2.76-1.54-3.12-5.39c-0.36-0.18-0.72-0.23-1.4-0.23
	c-3.08,0-5.25,2.81-5.25,8.15c0,6.11,2.63,10.14,7.24,10.14c1.77,0,3.12-0.5,4.89-1.86L203.58,134.56z"/>
<path class="st3" d="M217.68,138.41c-0.95,0-3.3-0.05-5.12-0.05c-1.77,0-4.35,0.05-5.3,0.05v-0.68l0.72-0.14
	c1.72-0.32,2.04-0.95,2.04-5.3v-9.37c0-2.4-0.36-3.08-1.86-3.85l-0.91-0.45v-0.54l7.06-1.63l0.59,0.36v15.48
	c0,4.35,0.32,4.98,2.04,5.3l0.72,0.14V138.41z M212.06,112.61c-1.77,0-3.08-1.22-3.08-2.85c0-1.68,1.31-2.94,3.08-2.94
	c1.77,0,3.08,1.27,3.08,2.94C215.14,111.39,213.83,112.61,212.06,112.61z"/>
<path class="st3" d="M244.37,138.41c-0.91,0-3.4-0.05-5.16-0.05c-1.72,0-4.12,0.05-5.12,0.05v-0.68l0.63-0.14
	c1.77-0.36,2.08-0.95,2.08-4.93v-8.87c0-3.21-1.31-4.71-3.53-4.71c-1.49,0-2.72,0.59-3.94,1.54v12.04c0,3.98,0.36,4.57,2.13,4.93
	l0.63,0.14v0.68c-1.04,0-3.44-0.05-5.21-0.05c-1.81,0-4.26,0.05-5.16,0.05v-0.68l0.68-0.14c1.72-0.36,2.08-0.95,2.08-5.3v-9.42
	c0-2.44-0.41-3.08-1.86-3.85l-0.95-0.5v-0.5l7.11-1.68l0.54,0.41v2.81c2.17-1.95,4.21-3.17,6.75-3.17c3.67,0,5.61,2.17,5.61,6.52
	v9.37c0,4.44,0.32,4.89,2.08,5.3l0.59,0.14L244.37,138.41L244.37,138.41z"/>
<path class="st3" d="M266.08,137.82c-1,0.45-2.13,0.77-3.8,0.77c-1.95,0-3.35-1.09-3.67-3.08c-1.86,1.95-3.76,3.26-6.29,3.26
	c-2.54,0-4.84-1.58-4.84-4.71c0-3.08,1.67-4.57,6.25-6.25c1.54-0.54,3.26-1.13,4.8-1.54v-3.08c0-4.03-1.22-5.39-3.4-5.39
	c-0.68,0-1.13,0.18-1.58,0.45c-0.36,4.21-1.22,5.66-2.9,5.66c-1.27,0-2.17-0.86-2.17-2.22c0-2.17,3.98-5.34,8.69-5.34
	c4.48,0,6.25,1.95,6.25,6.61v11.95c0,1.72,0.45,2.31,1.54,2.31c0.32,0,0.72,0,0.91-0.05L266.08,137.82z M258.52,127.32
	c-1,0.27-2.4,0.72-3.62,1.31c-1.86,0.91-2.9,2.17-2.9,4.07c0,2.26,1.36,3.4,3.26,3.4c1,0,2.17-0.5,3.26-1.54V127.32z"/>
</svg>
