<?xml version="1.0" encoding="utf-8"?>
<!-- Generator: Adobe Illustrator 24.0.1, SVG Export Plug-In . SVG Version: 6.00 Build 0)  -->
<svg version="1.1" id="Layer_1" xmlns="http://www.w3.org/2000/svg" xmlns:xlink="http://www.w3.org/1999/xlink" x="0px" y="0px"
	 viewBox="0 0 400 200" style="enable-background:new 0 0 400 200;" xml:space="preserve">
<style type="text/css">
	.st0{display:none;}
	.st1{display:inline;}
	.st2{fill:#231F20;}
	.st3{fill:#3F6C05;}
	.st4{fill:#007431;}
	.st5{display:inline;fill:#3F6C05;}
	.st6{fill:#FFFFFF;stroke:#3F6C05;stroke-width:0.5;stroke-miterlimit:10;}
</style>
<g class="st0">
	<g class="st1">
		<g>
			<path class="st2" d="M204.6,178c-0.2,0.1-0.3,0.1-0.4,0.1C204.3,178,204.4,178,204.6,178z"/>
			<path class="st2" d="M204.2,177.8L204.2,177.8L204.2,177.8c0.1,0,0.2,0,0.3-0.1l0.1,0l0.1,0.5l-0.2,0c-0.1,0-0.1,0-0.2,0.1l0,0
				l0,0L204.2,177.8z"/>
		</g>
		<path class="st3" d="M149.6,74.7c-1.1,0.3-2.7,0.7-4,1.3c-2.1,0.9-3.3,2.3-3.3,4.4c-0.1,2.5,1.4,3.8,3.5,3.8
			c1.1,0,2.4-0.5,3.6-1.6L149.6,74.7z"/>
		<path class="st3" d="M192.1,64.9c-3.1-0.1-4.7,2.7-4.9,9.5c-0.2,7.6,1.7,12.8,5.4,12.9c3.1,0.1,4.7-2.7,4.9-9.5
			C197.8,70.3,195.9,65,192.1,64.9z"/>
		<path class="st3" d="M272.3,125.3c-1.1,0.3-2.7,0.7-4,1.3c-2.1,0.9-3.3,2.3-3.3,4.4c-0.1,2.5,1.4,3.8,3.5,3.9
			c1.1,0,2.4-0.5,3.6-1.6L272.3,125.3z"/>
		<path class="st3" d="M202.5,181.1l3.2-3.4c-0.1,0-0.2,0.1-0.4,0.1c-0.3,0.1-0.5,0.1-0.7,0.2c0,0-0.1,0-0.1,0
			c-0.2,0.1-0.3,0.1-0.4,0.1c0,0,0,0,0,0s0,0,0,0c0.1,0,0.2,0,0.4-0.1c0,0,0.1,0,0.1,0c0.2,0,0.4-0.1,0.7-0.2c0.1,0,0.2-0.1,0.4-0.1
			c4.5-1.1,18.4-4.3,30.8-7.2c-6.3-2.2,10.8-8.5,40.8-17l0.5-3.5c-1.8-1.7,13.6-6.9,53.2-17.1l1.3-3.4c1.1-2.2,7-4.9,38.2-10.1
			c4.4,0.4,10,1,16.6,1.6c6.4-0.9,9.8-2.9,7.6-7.1c-0.9-6.1-16.3-19.5-39.2-36.8c-14.7-6.9-27.3-13.7-27.7-20.2
			c-23.6-5.7-46.1-11.3-47.6-16.1c-23.9-5.1-51.7-10.1-53-16.2c-10.5-3.1-21.9-4.9-35.5-3.4c-18.7,1.2-29,0.4-28.2-3.1
			c-18.3,2.4-34.8,6.9-48.8,14.5c-18.3,10-34.4,20.9-44.8,34.3c-11.6,13.5-20.4,27.3-26.4,41.2c-1,3.8-4.1,4.8-8.6,3.8
			c-11.3-0.7-22.1-2-28.4-7.4L4.2,113c-1.4,5.1,14.6,9.1,40.3,12.4c27.5,40.5,58.2,55.6,90.5,57.6c-3.9-4,15.1-1.9,37.5,1.1
			C173.4,179.9,188.5,180.7,202.5,181.1z M214.3,52.9L213.5,82c-0.1,4.8,0.2,5.5,2.1,5.9l0.8,0.2l0,0.8c-1.1,0-3.7-0.2-5.6-0.2
			c-2-0.1-4.8-0.1-5.8-0.1l0-0.8l0.8-0.1c1.9-0.3,2.3-1,2.4-5.8l0.6-22.4c0.1-2.7-0.3-3.3-1.9-4.2l-1-0.6l0-0.5l7.8-1.6L214.3,52.9z
			 M115.6,85.9l0-0.8l1.6-0.2c3-0.5,3.5-1.1,3.7-7.1l0.7-24.4l-3.3,0c-4.4,0-6,1.1-7.6,4.2l-1.2,2.3l-0.8,0l1.3-9.4l0.9,0
			c1.2,1,1.9,1.2,13.7,1.6c12.3,0.3,13.1,0.2,14.6-0.8l0.9,0l-1.7,9.4l-0.8,0l-0.4-2.3c-0.6-3.4-1.7-4.5-6.2-4.7l-3.8-0.2l-0.7,24.4
			c-0.2,6,0.3,6.7,3.1,7.3l1.6,0.3l0,0.8c-0.9,0-6.1-0.3-7.8-0.3C121.8,86,116.5,85.9,115.6,85.9z M137.2,81.7c0.1-3.4,2-5,7.1-6.7
			c1.7-0.6,3.6-1.1,5.3-1.5l0.1-3.4c0.1-4.4-1.2-6-3.6-6.1c-0.8,0-1.3,0.2-1.8,0.4c-0.5,4.6-1.5,6.2-3.4,6.2c-1.4,0-2.4-1-2.3-2.5
			c0.1-2.4,4.6-5.8,9.8-5.6c4.9,0.1,6.8,2.3,6.7,7.5l-0.4,13.2c-0.1,1.9,0.4,2.6,1.6,2.6c0.4,0,0.8,0,1,0l0.2,0.7
			c-1.1,0.5-2.4,0.8-4.2,0.7c-2.1-0.1-3.7-1.3-3.9-3.5c-2.1,2.1-4.2,3.5-7,3.4C139.6,87,137.1,85.2,137.2,81.7z M161.8,69.6
			c-1.5-4.1-2.1-5-3.9-5.4l-0.7-0.2l0-0.8c1.1,0,4,0.2,5.9,0.2c2,0.1,5.1,0.1,6.1,0.1l0,0.7l-0.9,0.1c-1.4,0.2-1.7,0.7-1.7,1.5
			s0.2,1.8,0.5,2.8l4,12.4l3.9-10c0.8-1.9,1.2-3.5,1.2-4.5c0-1-0.6-1.7-1.8-1.9l-0.9-0.2l0-0.8c1.1,0,2.7,0.1,4.6,0.2
			c1.9,0.1,3,0,4.1,0.1l0,0.8l-0.8,0.1c-1.8,0.3-2.5,1.3-4.2,5.3l-7.4,17.6l-1.3,0.2L161.8,69.6z M181.4,75.7
			c0.2-6.7,4.9-12.2,11.4-12c6.3,0.2,10.9,5,10.6,12.9c-0.2,6.7-4.9,12.2-11.4,12C185.6,88.4,181.1,83.6,181.4,75.7z M219.3,84.1
			c0.1-3.4,2-5,7.1-6.7c1.7-0.6,3.6-1.1,5.3-1.5l0.1-3.4c0.1-4.4-1.2-6-3.6-6.1c-0.8,0-1.3,0.2-1.8,0.4c-0.5,4.6-1.5,6.2-3.4,6.2
			c-1.4,0-2.4-1-2.3-2.5c0.1-2.4,4.6-5.8,9.8-5.6c4.9,0.1,6.8,2.3,6.7,7.5l-0.4,13.2c-0.1,1.9,0.4,2.6,1.6,2.6c0.4,0,0.8,0,1,0
			l0.2,0.7c-1.1,0.5-2.4,0.8-4.2,0.7c-2.1-0.1-3.7-1.3-3.9-3.5c-2.1,2.1-4.2,3.5-7,3.4C221.7,89.4,219.2,87.5,219.3,84.1z
			 M248.8,112.6c4,0.1,6.1,2.6,6,7.4l-0.3,10.3c-0.1,4.9,0.2,5.4,2.1,5.9l0.6,0.2l0,0.8c-1,0-3.8-0.2-5.7-0.2
			c-1.9-0.1-4.6-0.1-5.6-0.1l0-0.8l0.7-0.1c2-0.3,2.3-1,2.4-5.4l0.3-9.8c0.1-3.6-1.3-5.2-3.8-5.3c-1.6-0.1-3,0.6-4.4,1.6l-0.4,13.3
			c-0.1,4.4,0.2,5.1,2.2,5.5l0.7,0.2l0,0.8c-1.1,0-3.8-0.2-5.7-0.2c-2-0.1-4.7-0.1-5.7-0.1l0-0.8l0.8-0.1c1.9-0.3,2.3-1,2.5-5.8
			l0.3-10.4c0.1-2.7-0.4-3.4-1.9-4.3l-1-0.6l0-0.6l7.9-1.6l0.6,0.5l-0.1,3.1C243.7,113.8,246,112.5,248.8,112.6z M225.3,112.4
			l-0.5,17.1c-0.1,4.8,0.2,5.5,2.1,5.9l0.8,0.2l0,0.8c-1.1,0-3.6-0.2-5.6-0.2c-1.9-0.1-4.8-0.1-5.8-0.1l0-0.8l0.8-0.1
			c1.9-0.3,2.3-1,2.4-5.8l0.3-10.3c0.1-2.7-0.3-3.4-1.9-4.3l-1-0.5l0-0.6l7.8-1.6L225.3,112.4z M225.7,104.6
			c-0.1,1.8-1.5,3.1-3.5,3.1c-1.9-0.1-3.4-1.4-3.3-3.2c0.1-1.8,1.5-3.2,3.5-3.2C224.4,101.3,225.8,102.8,225.7,104.6z M133.1,116.4
			c0.3-11.3,8.8-17.4,17-17.2c4.3,0.1,7.2,1.2,9.6,2.5l0.9,8.3l-0.9,0l-0.9-2c-2.1-4.4-4.4-7.5-9-7.6c-6-0.2-9.9,5.3-10.1,15.2
			c-0.3,10.9,3.4,17.3,9.7,17.5c4.4,0.1,6.7-2.2,9.4-7.1l1.1-1.9l0.9,0l-1.3,8c-2.5,1.4-6.1,2.3-10.4,2.1
			C139.5,134.3,132.8,127.7,133.1,116.4z M167.2,127.7l0.3-10.2c0.1-2.7-0.2-3.4-1.9-4.3l-1-0.5l0-0.6l7.8-1.6l0.6,0.4l-0.5,16
			c-0.1,3.6,1.3,5.2,3.8,5.3c1.6,0.1,3.1-0.6,4.3-1.5l0.4-12.6c0.1-2.7-0.4-3.6-2.1-4.5l-1-0.5l0-0.6l8.1-1.6l0.6,0.4l-0.5,17.1
			c-0.1,4.9,0.2,5.4,2.1,5.9l0.7,0.2l0,0.8c-1.8-0.1-5.9-0.2-7.9-0.1l-0.4-3.3c-2.4,2.1-4.7,3.4-7.5,3.3
			C169.1,135,167.1,132.6,167.2,127.7z M192.2,124.4c0.2-7.7,5.6-13.4,11.8-13.2c4.6,0.1,7.3,2.5,7.2,4.8c-0.1,1.8-1.4,3-2.9,3
			c-1.9-0.1-3-1.8-3.3-6c-0.4-0.2-0.8-0.3-1.5-0.3c-3.4-0.1-5.9,2.9-6.1,8.8c-0.2,6.7,2.6,11.3,7.7,11.4c1.9,0.1,3.5-0.4,5.4-1.9
			l0.5,0.7c-2.4,2.6-5.1,4.6-9.2,4.5C196,135.9,192,131,192.2,124.4z M259.9,132.4c0.1-3.4,2-5,7.1-6.7c1.7-0.6,3.6-1.1,5.3-1.5
			l0.1-3.4c0.1-4.4-1.2-6-3.6-6.1c-0.8,0-1.3,0.2-1.8,0.4c-0.5,4.6-1.5,6.2-3.4,6.2c-1.4,0-2.4-1-2.3-2.5c0.1-2.4,4.6-5.8,9.8-5.6
			c4.9,0.1,6.8,2.3,6.7,7.5l-0.4,13.2c-0.1,1.9,0.4,2.6,1.6,2.6c0.4,0,0.8,0,1,0l0.2,0.7c-1.1,0.5-2.4,0.8-4.2,0.7
			c-2.1-0.1-3.7-1.3-4-3.5c-2.1,2.1-4.2,3.5-7,3.4C262.3,137.7,259.8,135.9,259.9,132.4z"/>
		<path class="st4" d="M205.4,177.8c-0.3,0.1-0.5,0.1-0.7,0.2C204.9,177.9,205.1,177.9,205.4,177.8z"/>
		<path class="st3" d="M231.7,77c-1.1,0.3-2.7,0.7-4,1.3c-2.1,0.9-3.3,2.3-3.3,4.4c-0.1,2.5,1.4,3.8,3.5,3.8c1.1,0,2.4-0.5,3.6-1.6
			L231.7,77z"/>
	</g>
	
		<rect x="154.4" y="-3.9" transform="matrix(2.039983e-02 -0.9998 0.9998 2.039983e-02 98.6083 290.6465)" class="st5" width="86.5" height="197.8"/>
</g>
<path class="st3" d="M5.4,105.7c0.1-0.4,0.6-0.6,0.9-0.4c8.8,6.6,34.2,13,38.6,0.5c31-60.5,72.3-81.5,117.6-87.7
	c0.2,0,0.5,0.1,0.5,0.3c0.9,2.8,6.8,4.4,23.4,3.1c15.2-2,28.1-0.6,39.9,2.8c0.1,0,0.1,0.1,0.2,0.1c2.6,5.3,23,10.8,52.5,16.4
	c0.1,0,0.2,0.1,0.2,0.1c4.3,6.3,27.7,10.8,47.9,15.7c0.1,0,0.1,0.1,0.1,0.1c0,5.7,12.5,12.8,26.7,20.1c0.7,0.3,1.3,0.7,1.9,1.2
	c35.7,27.1,59,48.9,14.2,40.9c-0.5-0.1-1-0.1-1.5,0c-18.2,3-37.4,5.7-37.6,13.5c0,0.3-0.2,0.5-0.4,0.5
	c-34.2,7.5-55.8,14.1-53.7,19.3c0.1,0.4,0,0.8-0.4,0.9c-20,6.4-43.2,13.3-41.6,16.5c0.2,0.5,0,1.1-0.5,1.2
	c-14.2,2.6-29.2,5.2-31.9,9.6c-0.1,0.1-0.2,0.2-0.4,0.2c-15-0.6-28.5-0.8-30.3,3.1c0,0-0.1,0.1-0.1,0.1c-21.7-3-38.5-4.5-38.3-1.3
	c0,0.1-0.1,0.3-0.3,0.2c-38.8-2.1-66.3-25.1-88.9-57.2c-25.1-4-32.4-4.1-40.5-10.8c-0.3-0.3-0.5-0.7-0.4-1.2L5.4,105.7z"/>
<g>
	<path class="st6" d="M133.6,46.5l-1.3,8.9h-0.8l-0.4-2.1c-0.6-3.2-1.8-4.2-6-4.3l-3.6-0.1v23.1c0,5.7,0.4,6.3,3.2,6.9l1.6,0.3v0.7
		c-0.8,0-5.8-0.1-7.4-0.1c-1.6,0-6.6,0.1-7.4,0.1v-0.7l1.5-0.3c2.8-0.5,3.3-1.1,3.3-6.9V48.9L113,49c-4.2,0.1-5.6,1.2-7.1,4.2
		l-1,2.2h-0.8l1-8.9h0.8c1.1,1,1.8,1.1,13,1.1c11.7,0,12.5-0.2,13.8-1.1L133.6,46.5L133.6,46.5z"/>
	<path class="st6" d="M152.7,79.3c-1,0.5-2.2,0.8-4,0.8c-2,0-3.5-1.1-3.8-3.2c-1.9,2-3.9,3.4-6.6,3.4c-2.7,0-5.1-1.7-5.1-4.9
		c0-3.2,1.8-4.8,6.5-6.5c1.6-0.6,3.4-1.2,5-1.6V64c0-4.2-1.3-5.6-3.6-5.6c-0.7,0-1.2,0.2-1.7,0.5c-0.4,4.4-1.3,5.9-3,5.9
		c-1.3,0-2.3-0.9-2.3-2.3c0-2.3,4.2-5.6,9.1-5.6c4.7,0,6.5,2,6.5,6.9v12.5c0,1.8,0.5,2.4,1.6,2.4c0.3,0,0.8,0,1-0.1L152.7,79.3z
		 M144.8,68.3c-1,0.3-2.5,0.8-3.8,1.4c-1.9,1-3,2.3-3,4.3c0,2.4,1.4,3.6,3.4,3.6c1,0,2.3-0.5,3.4-1.6V68.3z"/>
	<path class="st6" d="M177,58.1l-0.7,0.1c-1.7,0.3-2.4,1.3-3.9,5.2l-6.6,16.9l-1.2,0.2l-7-17.3c-1.5-3.8-2.1-4.6-3.8-5l-0.7-0.1
		v-0.7c1,0,3.8,0.1,5.6,0.1c1.9,0,4.8-0.1,5.8-0.1v0.7l-0.8,0.1c-1.3,0.2-1.6,0.7-1.6,1.5s0.2,1.7,0.6,2.6l4.2,11.6l3.4-9.6
		c0.7-1.8,1-3.3,1-4.3c0-1-0.6-1.6-1.8-1.8l-0.8-0.1v-0.7c1,0,2.6,0.1,4.4,0.1s2.8-0.1,3.9-0.1L177,58.1L177,58.1z"/>
	<path class="st6" d="M187.9,80.4c-6,0-10.4-4.5-10.4-12c0-6.3,4.3-11.6,10.5-11.6c6,0,10.4,4.5,10.4,12
		C198.3,75.1,194.1,80.4,187.9,80.4z M187.4,58c-2.9,0-4.4,2.7-4.4,9.1c0,7.2,1.9,12.1,5.5,12.1c2.9,0,4.4-2.7,4.4-9.1
		C192.9,63,190.9,58,187.4,58z"/>
	<path class="st6" d="M211.5,79.9c-1,0-3.5-0.1-5.4-0.1c-1.9,0-4.5,0.1-5.5,0.1v-0.7l0.8-0.1c1.8-0.3,2.1-1,2.1-5.5V52.4
		c0-2.5-0.4-3.1-1.9-4l-1-0.5v-0.5l7.4-1.8l0.6,0.4v27.5c0,4.5,0.4,5.2,2.2,5.5l0.8,0.1L211.5,79.9L211.5,79.9z"/>
	<path class="st6" d="M235.5,79.3c-1,0.5-2.2,0.8-4,0.8c-2,0-3.5-1.1-3.8-3.2c-1.9,2-3.9,3.4-6.6,3.4s-5.1-1.7-5.1-4.9
		c0-3.2,1.8-4.8,6.5-6.5c1.6-0.6,3.4-1.2,5-1.6V64c0-4.2-1.3-5.6-3.6-5.6c-0.7,0-1.2,0.2-1.7,0.5c-0.4,4.4-1.3,5.9-3,5.9
		c-1.3,0-2.3-0.9-2.3-2.3c0-2.3,4.2-5.6,9.1-5.6c4.7,0,6.5,2,6.5,6.9v12.5c0,1.8,0.5,2.4,1.6,2.4c0.3,0,0.8,0,1-0.1L235.5,79.3z
		 M227.6,68.3c-1,0.3-2.5,0.8-3.8,1.4c-1.9,1-3,2.3-3,4.3c0,2.4,1.4,3.6,3.4,3.6c1,0,2.3-0.5,3.4-1.6V68.3z"/>
</g>
<g>
	<path class="st6" d="M127,139l-1,7.6c-2.4,1.4-5.7,2.3-9.8,2.3c-9.1,0-15.6-6.1-15.6-16.7c0-10.7,7.9-16.7,15.6-16.7
		c4.1,0,6.8,0.9,9.2,2.1l1.1,7.9h-0.8l-1-1.9c-2.1-4.1-4.4-7-8.8-7c-5.7,0-9.2,5.3-9.2,14.7c0,10.3,3.7,16.3,9.7,16.3
		c4.2,0,6.3-2.2,8.8-7l1-1.8L127,139L127,139z"/>
	<path class="st6" d="M154.1,148.4c-1.7,0-5.6,0-7.5,0.1l-0.4-3.1c-2.2,2-4.3,3.3-7,3.3c-3.8,0-5.9-2.2-5.9-6.8v-9.7
		c0-2.5-0.3-3.2-1.9-4l-1-0.5v-0.6l7.4-1.7l0.6,0.4V141c0,3.4,1.4,4.9,3.7,4.9c1.6,0,2.9-0.6,4.1-1.6v-12c0-2.5-0.4-3.4-2.1-4.2
		l-1-0.5v-0.6l7.6-1.7l0.6,0.4V142c0,4.6,0.3,5.2,2.2,5.5l0.7,0.1L154.1,148.4L154.1,148.4z"/>
	<path class="st6" d="M175.7,144.4c-2.2,2.6-4.7,4.5-8.6,4.5c-5.6,0-9.5-4.5-9.5-10.8c0-7.3,4.9-12.8,10.8-12.8c4.4,0,7,2.1,7,4.3
		c0,1.7-1.2,2.9-2.7,2.9c-1.8,0-2.9-1.6-3.3-5.6c-0.4-0.2-0.8-0.2-1.5-0.2c-3.2,0-5.5,2.9-5.5,8.5c0,6.4,2.7,10.6,7.6,10.6
		c1.9,0,3.3-0.5,5.1-1.9L175.7,144.4z"/>
	<path class="st6" d="M190.5,148.4c-1,0-3.4-0.1-5.4-0.1c-1.9,0-4.5,0.1-5.5,0.1v-0.7l0.8-0.1c1.8-0.3,2.1-1,2.1-5.5v-9.8
		c0-2.5-0.4-3.2-1.9-4l-1-0.5v-0.6l7.4-1.7l0.6,0.4V142c0,4.5,0.3,5.2,2.1,5.5l0.8,0.1L190.5,148.4L190.5,148.4z M184.6,121.5
		c-1.9,0-3.2-1.3-3.2-3c0-1.8,1.4-3.1,3.2-3.1c1.9,0,3.2,1.3,3.2,3.1C187.8,120.2,186.5,121.5,184.6,121.5z"/>
	<path class="st6" d="M218.4,148.4c-1,0-3.6-0.1-5.4-0.1c-1.8,0-4.3,0.1-5.4,0.1v-0.7l0.7-0.1c1.9-0.4,2.2-1,2.2-5.2v-9.3
		c0-3.4-1.4-4.9-3.7-4.9c-1.6,0-2.8,0.6-4.1,1.6v12.6c0,4.2,0.4,4.8,2.2,5.2l0.7,0.1v0.7c-1.1,0-3.6-0.1-5.4-0.1
		c-1.9,0-4.5,0.1-5.4,0.1v-0.7l0.7-0.1c1.8-0.4,2.2-1,2.2-5.5v-9.8c0-2.6-0.4-3.2-1.9-4l-1-0.5v-0.5l7.4-1.8l0.6,0.4v2.9
		c2.3-2,4.4-3.3,7.1-3.3c3.8,0,5.9,2.3,5.9,6.8v9.8c0,4.6,0.3,5.1,2.2,5.5l0.6,0.1L218.4,148.4L218.4,148.4z"/>
	<path class="st6" d="M241.1,147.8c-1,0.5-2.2,0.8-4,0.8c-2,0-3.5-1.1-3.8-3.2c-1.9,2-3.9,3.4-6.6,3.4c-2.7,0-5.1-1.7-5.1-4.9
		c0-3.2,1.7-4.8,6.5-6.5c1.6-0.6,3.4-1.2,5-1.6v-3.2c0-4.2-1.3-5.6-3.6-5.6c-0.7,0-1.2,0.2-1.7,0.5c-0.4,4.4-1.3,5.9-3,5.9
		c-1.3,0-2.3-0.9-2.3-2.3c0-2.3,4.2-5.6,9.1-5.6c4.7,0,6.5,2,6.5,6.9v12.5c0,1.8,0.5,2.4,1.6,2.4c0.3,0,0.8,0,1-0.1L241.1,147.8z
		 M233.2,136.8c-1,0.3-2.5,0.8-3.8,1.4c-1.9,1-3,2.3-3,4.3c0,2.4,1.4,3.6,3.4,3.6c1,0,2.3-0.5,3.4-1.6V136.8z"/>
</g>
</svg>
